<?xml version="1.0" encoding="UTF-8"?>
<svg id="Layer_1" data-name="Layer 1" xmlns="http://www.w3.org/2000/svg" xmlns:xlink="http://www.w3.org/1999/xlink" viewBox="0 0 34.92 30.07">
  <defs>
    <style>
      .cls-1, .cls-2 {
        fill: none;
      }

      .cls-3 {
        clip-path: url(#clippath);
      }

      .cls-4 {
        fill: #231f20;
      }

      .cls-2 {
        stroke: #231f20;
        stroke-width: .38px;
      }
    </style>
    <clipPath id="clippath">
      <rect class="cls-1" x=".81" y=".44" width="33.42" height="29.26"/>
    </clipPath>
  </defs>
  <g class="cls-3">
    <path class="cls-4" d="M23.05,25.11c-.08-.24-.19-.43-.32-.65-.3-.51-.62-.98-.95-1.48-.02,0-.03,0-.05,0,.3,.51,.18,.69-.47,1.31-.42,.4-.91,.65-1.51,.77,.72,.14,1.42,.17,2.1-.03,.14-.04,.29-.06,.44-.06,.29,0,.52,.08,.61,.32,.08,0,.15,.02,.23,.04-.02-.07-.05-.15-.08-.23"/>
    <path class="cls-4" d="M13.87,11.23c-.11-.04-.22-.1-.32-.2-.08-.08-.13-.15-.17-.23-.07-.04-.15-.08-.22-.15-.07-.07-.11-.13-.15-.2-.09-.04-.18-.09-.26-.17-.07-.07-.12-.14-.15-.21-.15-.09-.29-.18-.44-.28-.19,.02-.4-.03-.59-.2-.14-.02-.28-.09-.41-.21-.08,.04-.16,.08-.21,.13,.06,.01,.18,.08,.2,.09,.5,.33,.6,.5,.36,1-.15,.33-.44,.59-.71,.86-.12,.12-.32,.18-.5,.28,.65,.2,1.37,.02,1.75-.41,.12-.14,.24-.28,.37-.41,.22-.22,.51-.19,.77,0,.2,.15,.43,.24,.67,.32,0,0,0,0,0-.01"/>
    <path class="cls-2" d="M8.48,19.62l-.29,.26c-.19,.17-.37,.34-.56,.51-.65,.59-1.32,1.17-1.99,1.74-.23,.24-.47,.49-.7,.73-.35,.69-.64,1.4-.86,2.13-.08,.27-.15,.55-.23,.82,.02,.38,.04,.76,.07,1.14-.04,.27-.05,.54-.01,.81,.03,.22-.03,.48,.07,.68,.04,.06,.09,.12,.13,.18,.08,.11,.11,.23,.08,.37,.03,.19,.11,.25,.3,.31,.21,.06,.41,.12,.62,.18,.51,.07,1.01-.16,1.49-.36,.47-.19,.93-.4,1.39-.6,.49-.2,.94-.43,1.35-.78,.45-.39,.87-.8,1.31-1.2,.43-.39,.88-.77,1.3-1.16,.51-.47,.99-.98,1.24-1.61,.05-.19,.11-.39,.16-.58,.15-.4,.36-.76,.65-1.09,.25-.38,.42-.79,.51-1.23,.11-.33,.23-.66,.35-.98,.28-.7,.52-1.41,.73-2.13,.38-1.06,.97-2.04,1.51-3.04,.56-1.07,1.13-2.11,1.76-3.14,.52-.92,1.08-1.83,1.65-2.72,.75-1.11,1.59-2.15,2.57-3.11,.27-.25,.54-.5,.81-.75,.44-.59,1.01-.97,1.73-1.15,.46-.03,.93-.06,1.39-.09,.74-.02,1.48,0,2.2,.1,.53,.04,1.06,.11,1.57,.22l.6,.16c.26,.1,.52,.21,.77,.31,.23,.05,.49,.03,.68-.14,.17-.15,.19-.22,.45-.26,.08,0,.16,0,.24-.01,.21-.08,.39-.2,.54-.37m-9.76,24.07c-1.23-2.41-2.38-4.85-3.68-7.24-.31-.56-.63-1.12-.94-1.68-.55-.83-1.13-1.64-1.74-2.44-1.01-1.4-1.89-2.85-3.06-4.14-.26-.27-.51-.53-.77-.8-.43-.44-.88-.87-1.34-1.28-.76-.59-1.69-.94-2.64-1.13-.86-.17-1.66-.07-2.51,.05-.81,.11-1.56,.35-2.35,.51-.67,.13-1.41,.14-2,.47-.4,.22-.7,.57-1.03,.86-.28,.24-.59,.44-.79,.75-.12,.24-.23,.48-.35,.72-.11,.16-.14,.32-.09,.5,.08,.46,.57,.94,1.08,.98,.09,0,.18,0,.28,0,.18,0,.36,.04,.53,.1,.15,.02,.26-.02,.34-.14,.1-.12,.07-.22-.07-.31"/>
    <path class="cls-4" d="M19.97,9.82c-.07,.06-.13,.12-.2,.18,0,.12-.04,.25-.12,.39-.44,.68-.79,1.36-1.27,2.01,.05,.03,.1,.06,.16,.1,.18-.22,.37-.44,.55-.66,.13-.16,.32-.31,.51-.39,.86-.35,1.52-.06,2.09,.46l.06-.28c-.17-.56-.53-.93-1.1-1.15-.4-.16-.55-.4-.31-.88,.06-.11,.1-.23,.14-.34-.08,0-.16,0-.25,0,0,.19-.07,.39-.27,.56"/>
    <path class="cls-4" d="M3.78,25.24c-.03,.1-.01,.28-.04,.38,.02,.03,.03,.07,.05,.1,.04-.08,0-.22,.07-.29,.02-.15,.09-.3,.22-.44,0,0,.02-.06,.04-.13,0-.32,.06-.64,.25-.93,.01-.02,.03-.03,.04-.05,.01-.06,.03-.12,.05-.18,.1-.26,.25-.52,.45-.74-.06-.04-.05-.17-.11-.21,0,0-.07,.09-.08,.1-.02,.02-.05,.06-.06,.07-.3,.54-.43,.56-1.17,.52-.63-.03-1.13,.22-1.56,.61,.4,.03,.83-.01,1.2,.09,.71,.19,.87,.4,.64,1.1"/>
    <path class="cls-4" d="M14.24,21.23c-.01,.09-.02,.22-.07,.34,.08-.01,.19-.04,.27-.03-.13-.94,.32-1.72,.89-2.59-.06-.19-.02-.42,.16-.62-.05-.05-.11-.1-.15-.15-.12,.34-.39,.58-.62,.88-.11,.14-.33,.25-.51,.29-.79,.19-1.42-.09-1.99-.6,.15,.77,.39,1.05,1.11,1.32,.56,.21,.99,.47,.91,1.15"/>
    <path class="cls-4" d="M27.27,3.66c1.01,0,2,.16,3,.23,.08,0,.16,.02,.23,.05t.02-.08c-.32-.05-.64-.13-.97-.16-.72-.07-.99-.4-1.18-.93-.2-.59-.21-1.21-.01-1.84,.04-.12,.07-.25,.12-.48-.66,.65-1.12,1.28-1.29,2.06-.04,.2-.09,.41-.14,.61-.09,.32-.28,.46-.66,.5-.29,.03-.58,.06-.88,.1,.02,.06,.03,.11,.04,.17,.52-.2,1.12-.23,1.7-.22"/>
  </g>
</svg>